<svg xmlns="http://www.w3.org/2000/svg" viewBox="0 0 1280 800" width="1280" height="800">
  <defs>
    <linearGradient id="bg" x1="0" y1="0" x2="1" y2="1">
      <stop offset="0%" stop-color="#151512"/>
      <stop offset="55%" stop-color="#0a0a08"/>
      <stop offset="100%" stop-color="#000000"/>
    </linearGradient>
    <linearGradient id="cream" x1="0" y1="0" x2="1" y2="0">
      <stop offset="0%" stop-color="#E1E0CC"/>
      <stop offset="100%" stop-color="#B9B79E"/>
    </linearGradient>
    <filter id="soft" x="-20%" y="-20%" width="140%" height="140%">
      <feGaussianBlur stdDeviation="18"/>
    </filter>
    <filter id="grain">
      <feTurbulence type="fractalNoise" baseFrequency="0.85" numOctaves="3" stitchTiles="stitch" result="n"/>
      <feColorMatrix in="n" type="matrix" values="0 0 0 0 1  0 0 0 0 1  0 0 0 0 1  0 0 0 0.04 0"/>
    </filter>
  </defs>

  <rect width="1280" height="800" fill="url(#bg)"/>
  <circle cx="1000" cy="150" r="260" fill="#DEDBC8" opacity="0.06" filter="url(#soft)"/>
  <circle cx="180" cy="680" r="220" fill="#DEDBC8" opacity="0.05" filter="url(#soft)"/>

  <!-- محاكاة واجهة هاتف: قائمة طعام رقمية -->
  <g transform="translate(120,140)">
    <rect x="0" y="0" width="300" height="560" rx="34" fill="#101010" stroke="#2a2a2a" stroke-width="2"/>
    <rect x="20" y="36" width="260" height="90" rx="14" fill="#1c1c1c"/>
    <rect x="36" y="52" width="140" height="14" rx="4" fill="url(#cream)"/>
    <rect x="36" y="76" width="90" height="10" rx="4" fill="#555"/>
    <rect x="20" y="140" width="260" height="70" rx="12" fill="#1c1c1c"/>
    <rect x="20" y="222" width="260" height="70" rx="12" fill="#1c1c1c"/>
    <rect x="20" y="304" width="260" height="70" rx="12" fill="#1c1c1c"/>
    <rect x="36" y="158" width="120" height="10" rx="4" fill="#DEDBC8" opacity="0.85"/>
    <rect x="36" y="178" width="70" height="8" rx="4" fill="#666"/>
    <rect x="36" y="240" width="120" height="10" rx="4" fill="#DEDBC8" opacity="0.85"/>
    <rect x="36" y="260" width="70" height="8" rx="4" fill="#666"/>
    <rect x="36" y="322" width="120" height="10" rx="4" fill="#DEDBC8" opacity="0.85"/>
    <rect x="36" y="342" width="70" height="8" rx="4" fill="#666"/>
    <rect x="20" y="490" width="260" height="46" rx="23" fill="#DEDBC8"/>
    <rect x="90" y="508" width="120" height="10" rx="4" fill="#111"/>
  </g>

  <!-- محاكاة لوحة تحكم الإدارة -->
  <g transform="translate(500,120)">
    <rect x="0" y="0" width="620" height="420" rx="20" fill="#161616" stroke="#2a2a2a" stroke-width="2"/>
    <rect x="0" y="0" width="620" height="56" rx="20" fill="#1e1e1e"/>
    <circle cx="28" cy="28" r="6" fill="#555"/>
    <circle cx="50" cy="28" r="6" fill="#555"/>
    <circle cx="72" cy="28" r="6" fill="#555"/>
    <rect x="500" y="16" width="96" height="24" rx="12" fill="#DEDBC8"/>

    <rect x="24" y="80" width="176" height="100" rx="14" fill="#212121"/>
    <rect x="216" y="80" width="176" height="100" rx="14" fill="#212121"/>
    <rect x="408" y="80" width="188" height="100" rx="14" fill="#212121"/>
    <rect x="44" y="104" width="80" height="10" rx="4" fill="#888"/>
    <rect x="44" y="128" width="120" height="22" rx="6" fill="#DEDBC8"/>
    <rect x="236" y="104" width="80" height="10" rx="4" fill="#888"/>
    <rect x="236" y="128" width="120" height="22" rx="6" fill="#DEDBC8"/>
    <rect x="428" y="104" width="80" height="10" rx="4" fill="#888"/>
    <rect x="428" y="128" width="120" height="22" rx="6" fill="#DEDBC8"/>

    <rect x="24" y="204" width="572" height="192" rx="14" fill="#1c1c1c"/>
    <rect x="44" y="224" width="150" height="12" rx="4" fill="#999"/>
    <rect x="44" y="256" width="532" height="1" fill="#333"/>
    <rect x="44" y="276" width="180" height="10" rx="4" fill="#777"/>
    <rect x="440" y="276" width="60" height="10" rx="4" fill="#DEDBC8" opacity="0.8"/>
    <rect x="44" y="304" width="180" height="10" rx="4" fill="#777"/>
    <rect x="440" y="304" width="60" height="10" rx="4" fill="#DEDBC8" opacity="0.8"/>
    <rect x="44" y="332" width="180" height="10" rx="4" fill="#777"/>
    <rect x="440" y="332" width="60" height="10" rx="4" fill="#DEDBC8" opacity="0.8"/>
  </g>

  <rect width="1280" height="800" filter="url(#grain)" opacity="0.5"/>
  <rect width="1280" height="800" fill="url(#bg)" opacity="0.06"/>

  <text x="120" y="750" font-family="Almarai, sans-serif" font-size="22" fill="#E1E0CC" opacity="0.55">
    Foah Al Kabsah — Restaurant Web Application
  </text>
</svg>
